<?xml version="1.0" standalone="no"?>
<!DOCTYPE svg PUBLIC "-//W3C//DTD SVG 20010904//EN"
 "http://www.w3.org/TR/2001/REC-SVG-20010904/DTD/svg10.dtd">
<svg version="1.0" xmlns="http://www.w3.org/2000/svg"
 width="512.000000pt" height="512.000000pt" viewBox="0 0 512.000000 512.000000"
 preserveAspectRatio="xMidYMid meet">
<metadata>
Created by potrace 1.11, written by Peter Selinger 2001-2013
</metadata>
<g transform="translate(0.000000,512.000000) scale(0.100000,-0.100000)"
fill="#000000" stroke="none">
<path d="M1080 5104 c-255 -54 -467 -234 -560 -475 -16 -41 -34 -104 -40 -140
-8 -45 -10 -590 -8 -1879 l3 -1815 23 -70 c47 -139 99 -223 202 -325 106 -106
195 -161 330 -201 69 -21 100 -23 398 -27 l322 -4 0 -48 c0 -63 15 -96 51
-110 48 -20 76 -4 184 108 l104 107 114 -113 c119 -117 133 -125 186 -97 35
18 41 32 41 101 l0 54 1081 0 1081 0 29 29 29 29 0 2411 c0 1745 -3 2417 -11
2434 -6 14 -22 30 -36 36 -17 8 -502 11 -1741 10 -1432 0 -1728 -3 -1782 -15z
m3400 -1774 l0 -1620 -1620 0 -1620 0 0 1620 0 1620 1620 0 1620 0 0 -1620z
m-3412 1388 l-3 -201 -65 -22 c-125 -42 -246 -119 -324 -205 l-36 -40 0 70 c0
217 101 416 266 526 50 32 134 72 157 74 4 0 6 -91 5 -202z m-10 -559 l-3
-171 -55 -17 c-98 -31 -198 -91 -283 -170 l-80 -76 6 83 c16 208 136 390 321
487 37 19 74 35 82 35 12 0 14 -27 12 -171z m10 -680 l-3 -330 -85 -32 c-113
-43 -200 -97 -277 -173 l-63 -62 0 213 c0 239 13 315 72 428 47 90 164 204
257 250 40 20 80 37 87 37 12 0 14 -55 12 -331z m-8 -689 c0 -154 -2 -171 -17
-176 -140 -43 -245 -104 -342 -197 l-63 -62 6 80 c16 217 132 391 328 492 35
18 69 33 76 33 9 0 12 -41 12 -170z m10 -724 l0 -375 -57 -16 c-65 -19 -172
-71 -223 -109 -19 -15 -61 -52 -92 -83 l-58 -56 0 249 c0 285 9 347 66 464 50
102 159 211 264 263 41 20 81 37 88 37 9 0 12 -81 12 -374z m3410 -616 l0 -80
-1612 0 c-887 -1 -1643 -5 -1680 -9 -353 -46 -501 -470 -251 -720 65 -64 141
-106 222 -121 29 -5 175 -10 322 -10 l269 0 0 -85 0 -85 -282 0 c-210 0 -301
4 -353 15 -225 47 -410 232 -461 461 -57 259 87 547 331 660 120 55 23 53
1828 53 l1667 1 0 -80z m0 -345 l0 -85 -187 0 c-203 -1 -213 -3 -233 -55 -8
-21 -8 -36 1 -57 21 -51 50 -58 244 -58 l175 0 0 -85 0 -85 -1022 2 -1023 3
-3 82 -3 82 230 3 c227 3 230 3 255 27 35 33 36 88 1 121 l-25 24 -833 -1
c-457 0 -842 -3 -855 -7 -12 -4 -29 -21 -38 -37 -22 -43 -10 -86 29 -110 29
-17 53 -19 295 -19 l262 0 0 -85 0 -85 -268 0 c-320 0 -348 5 -422 80 -35 34
-53 62 -64 101 -20 65 -20 92 -1 155 19 65 63 116 127 148 l52 26 1653 0 1653
0 0 -85z m-2220 -532 l0 -277 -57 56 c-32 31 -68 61 -80 67 -36 18 -74 2 -140
-62 l-63 -60 0 276 0 277 170 0 170 0 0 -277z m2220 -148 l0 -85 -1025 0
-1025 0 0 85 0 85 1025 0 1025 0 0 -85z"/>
<path d="M2640 4676 c-308 -56 -550 -184 -765 -407 -248 -257 -378 -582 -378
-944 0 -885 834 -1535 1694 -1320 395 99 727 373 903 746 85 179 126 366 126
573 0 378 -134 701 -399 967 -193 192 -416 314 -686 375 -96 22 -395 28 -495
10z m416 -171 c249 -43 463 -154 644 -335 231 -230 350 -516 350 -841 0 -314
-111 -593 -325 -818 -409 -429 -1048 -500 -1537 -170 -255 173 -435 444 -498
749 -28 132 -30 326 -6 450 47 248 151 445 331 626 179 182 390 293 640 339
97 18 295 18 401 0z"/>
<path d="M2976 3988 c-20 -19 -56 -126 -202 -599 -164 -539 -175 -579 -163
-605 26 -54 83 -67 132 -31 22 15 367 1121 367 1175 0 70 -82 107 -134 60z"/>
<path d="M2113 3557 c-175 -175 -193 -196 -193 -227 0 -31 18 -52 193 -227
105 -107 202 -196 214 -199 51 -13 103 29 103 85 0 31 -14 49 -152 188 l-152
153 152 153 c166 167 175 185 131 241 -16 21 -29 26 -62 26 -40 0 -46 -4 -234
-193z"/>
<path d="M3312 3727 c-15 -16 -22 -36 -22 -61 0 -36 10 -48 150 -190 l149
-152 -149 -149 c-139 -138 -150 -153 -150 -186 0 -54 28 -84 79 -84 40 0 46 5
231 190 123 123 191 199 195 216 4 16 0 39 -9 56 -8 15 -95 108 -193 206 -172
170 -181 177 -219 177 -29 0 -47 -6 -62 -23z"/>
</g>
</svg>
